<svg width="233" height="82" viewBox="0 0 233 82" fill="none" xmlns="http://www.w3.org/2000/svg">
<g filter="url(#filter0_d_0_1)">
<path d="M28.8317 19.1404L28.8319 19.1407C28.8754 19.209 28.8743 19.255 28.8679 19.2847C28.8598 19.3227 28.8341 19.3681 28.7878 19.4053C28.7415 19.4425 28.6919 19.4575 28.6535 19.4572C28.6236 19.457 28.5788 19.4483 28.5217 19.391L28.1675 19.744L28.5217 19.391C25.8465 16.7069 24.917 11.9634 25.8546 7.85513C26.7881 3.76516 29.5131 0.5 33.9765 0.5C38.4399 0.5 41.165 3.76516 42.0984 7.855C43.0361 11.9631 42.1065 16.7064 39.4314 19.39L39.4311 19.3903C39.3739 19.4479 39.329 19.4565 39.2992 19.4568C39.261 19.4571 39.2114 19.4421 39.1652 19.405C39.119 19.3679 39.0934 19.3225 39.0852 19.2843C39.0788 19.2544 39.0777 19.2081 39.1213 19.1395L39.1214 19.1395C40.7187 16.6296 40.8488 13.3222 39.9091 10.6518C38.9706 7.98519 36.8984 5.80443 33.9765 5.809C31.0546 5.80443 28.9825 7.9852 28.044 10.6519C27.1042 13.3224 27.2344 16.6301 28.8317 19.1404Z" fill="white" stroke="white"/>
</g>
<g filter="url(#filter1_d_0_1)">
<path d="M48.9317 71.7516C54.9272 72.8907 59.226 68.7426 59.226 64.0014C59.226 62.2641 58.7367 60.9386 57.8774 59.9956C57.0223 59.0572 55.8491 58.5503 54.5763 58.3532C52.0544 57.9626 49.014 58.7642 46.7585 60.0515L23.007 71.7074C18.3091 73.9026 13.6611 73.9567 10.2161 72.3704C6.78995 70.7927 4.5 67.5726 4.5 63.0604C4.5 60.0235 5.93573 56.6004 8.50306 54.5197C11.0342 52.4685 14.7184 51.6787 19.3624 53.9746L19.3626 53.9747C19.4167 54.0014 19.4288 54.0277 19.4335 54.0405C19.4408 54.0604 19.4435 54.0927 19.4305 54.1305C19.4176 54.1683 19.3949 54.194 19.3745 54.207C19.3602 54.2161 19.3321 54.2295 19.2723 54.2182C13.2768 53.0791 8.978 57.2272 8.978 61.9684C8.978 63.7058 9.46734 65.0312 10.3266 65.9742C11.1817 66.9126 12.3549 67.4195 13.6277 67.6166C16.1496 68.0072 19.1899 67.2057 21.4454 65.9183L45.1322 54.2927L45.1928 54.2643C49.8921 52.0672 54.5418 52.0127 57.9879 53.5994C61.4141 55.1771 63.704 58.3972 63.704 62.9094C63.704 65.9464 62.2683 69.3695 59.7009 71.4501C57.1698 73.5014 53.4856 74.2911 48.8416 71.9952L48.8414 71.9951C48.7873 71.9684 48.7751 71.9422 48.7705 71.9293C48.7632 71.9095 48.7605 71.8771 48.7735 71.8393C48.7864 71.8015 48.8091 71.7758 48.8295 71.7629C48.8438 71.7538 48.8719 71.7403 48.9317 71.7516ZM48.9317 71.7516L49.025 71.2604M48.9317 71.7516C48.9317 71.7516 48.9318 71.7517 48.9319 71.7517L49.025 71.2604M49.025 71.2604C48.297 71.1224 47.956 72.1154 48.62 72.4434L46.993 60.4934C51.367 57.9894 58.726 57.4384 58.726 64.0014C58.726 68.4214 54.72 72.3424 49.025 71.2604Z" fill="white" stroke="white"/>
</g>
<g filter="url(#filter2_d_0_1)">
<path d="M47.8151 15.881L47.8151 15.881C47.7721 15.7908 47.7786 15.7291 47.7933 15.6868C47.8108 15.6365 47.8514 15.5835 47.9135 15.5453C47.9755 15.5071 48.0398 15.4954 48.0903 15.5024C48.132 15.5081 48.1883 15.5291 48.2483 15.6082C53.9377 23.1233 53.662 30.9251 50.2948 36.8534C46.9121 42.8088 40.4087 46.8782 33.6228 46.8782H33.5778C26.7918 46.8782 20.2884 42.8088 16.9058 36.8534C13.5385 30.9251 13.2628 23.1231 18.9524 15.608L18.9525 15.608C19.0125 15.5286 19.0688 15.5077 19.1104 15.5019C19.1607 15.495 19.2249 15.5066 19.2869 15.5449C19.349 15.5831 19.3897 15.6361 19.4072 15.6866C19.4219 15.7291 19.4284 15.7909 19.3855 15.881L19.3855 15.881C15.7935 23.4144 17.2714 29.4977 20.7266 33.6851C24.149 37.8326 29.491 40.0952 33.6228 40.0952C37.8435 40.0952 43.1759 37.8334 46.5659 33.6827C49.9877 29.4931 51.4054 23.4104 47.8151 15.881Z" fill="white" stroke="white"/>
</g>
<g filter="url(#filter3_d_0_1)">
<mask id="path-4-inside-1_0_1" fill="white">
<path d="M70.3866 52.4127C70.9949 52.7018 71.994 52.2102 73.3843 50.9382C74.7745 49.6663 76.1212 48.0331 77.4245 46.0386C78.7278 44.044 79.8139 41.9194 80.6828 39.6646C81.5517 37.4099 81.8124 35.4442 81.4648 33.7677C81.4648 33.4208 81.6821 33.204 82.1165 33.1173C82.5509 33.0305 83.0504 32.9872 83.6151 32.9872C84.1799 32.9872 84.7446 33.0161 85.3093 33.0739C85.874 33.1317 86.2868 33.1896 86.5475 33.2474C86.3737 34.5194 86.1348 36.1237 85.8308 38.0604C85.5267 39.9971 85.3312 41.9194 85.2443 43.8273C85.1574 45.7351 85.2659 47.4695 85.57 49.0305C85.874 50.5914 86.5909 51.6033 87.7205 52.0657C88.6762 52.4704 89.784 52.4415 91.0439 51.9791C92.3038 51.5166 93.5202 50.9384 94.6932 50.2447C95.8662 49.5509 96.9306 48.9294 97.8863 48.3802C98.842 47.831 99.4503 47.6431 99.7109 47.8165C99.3634 48.7993 98.6248 49.7532 97.4952 50.6783C96.3656 51.6033 95.084 52.3838 93.6504 53.0197C92.2168 53.6556 90.6962 54.1037 89.0888 54.3639C87.4814 54.624 86.026 54.5807 84.7227 54.2338C84.2014 54.1759 83.7886 53.8435 83.4845 53.2365C83.1805 52.6295 82.9198 51.9212 82.7026 51.1118C82.4853 50.3025 82.3116 49.4353 82.1812 48.5103C82.0509 47.5852 81.8988 46.7469 81.7251 45.9954L79.3791 49.1173L76.7725 52.4127L74.2962 55.101L72.3412 56.4018C70.6035 56.8643 69.2568 56.9655 68.3009 56.7053C67.3451 56.4451 66.6936 56.0838 66.346 55.6213C65.8246 55.4479 65.4554 54.8553 65.2381 53.8435C65.0209 52.8318 64.8472 51.5455 64.7168 49.9845C64.5865 48.4235 64.5213 46.6603 64.5213 44.6946V38.6675L64.391 32.5971L64 27.0904C64.6083 27.0904 65.2165 27.1193 65.8248 27.1771C66.3461 27.235 66.8674 27.3072 67.3887 27.3939C67.9101 27.4806 68.3445 27.6686 68.6921 27.9576C69.1265 29.2873 69.1916 31.6287 68.8876 34.9819C68.5835 38.3352 68.3446 42.3822 68.1709 47.1227C68.1709 47.2962 68.1926 47.6286 68.236 48.12C68.2794 48.6115 68.3664 49.1463 68.4967 49.7244C68.627 50.3026 68.8443 50.8518 69.1484 51.3721C69.4524 51.8924 69.8653 52.2393 70.3866 52.4127ZM95.2799 0.554136C95.5406 0.554136 95.8666 0.482237 96.2576 0.337674C96.6485 0.193112 97.0613 0.149753 97.4957 0.207595C97.9301 0.265438 98.3211 0.525597 98.6687 0.988075C99.0163 1.45055 99.2769 2.25991 99.4507 3.41624C99.6244 4.8616 99.7981 6.62488 99.9719 8.70616C100.146 10.7874 100.341 13.0276 100.558 15.427C100.776 17.8263 101.015 20.3267 101.275 22.9283C101.536 25.5299 101.797 28.0593 102.057 30.5163C102.318 32.9733 102.557 35.2568 102.774 37.3671C102.991 39.4775 103.187 41.2839 103.36 42.7872C103.621 42.0934 104.142 41.154 104.924 39.9688C105.706 38.7835 106.684 37.5406 107.857 36.2398C109.03 34.939 110.398 33.6961 111.962 32.5108C113.526 31.3256 115.221 30.4151 117.045 29.7791C118.522 29.3744 119.782 29.1576 120.825 29.1287C121.868 29.0999 122.758 29.2011 123.497 29.4323C124.235 29.6636 124.844 29.9527 125.321 30.2995C125.799 30.6464 126.169 30.9644 126.429 31.2535C127.472 32.93 127.841 34.8667 127.537 37.0637C127.233 39.2608 126.408 41.4431 125.061 43.6111C123.714 45.7791 121.868 47.7591 119.522 49.5514C117.176 51.3437 114.439 52.6445 111.311 53.4538C109.573 53.9163 108.313 54.162 107.531 54.1908C106.749 54.2197 105.967 54.2342 105.185 54.2342C105.359 55.1014 105.403 55.6796 105.316 55.9686C105.229 56.2576 105.098 56.4311 104.925 56.4889C104.577 56.7202 104.012 56.8503 103.23 56.8792C102.448 56.908 101.666 56.8647 100.884 56.7491C100.363 52.2396 99.8851 47.875 99.4507 43.6544C99.2769 41.8621 99.0814 40.0121 98.8642 38.1043C98.6469 36.1964 98.4297 34.3465 98.2124 32.5542C97.9951 30.7619 97.7996 29.0709 97.6259 27.4811C97.4522 25.8913 97.3218 24.4892 97.2349 23.2751C97.148 21.0783 96.9525 18.6501 96.6484 15.9907C96.3444 13.3312 96.0619 10.8596 95.8013 8.57608C95.5406 6.29253 95.3233 4.37016 95.1496 2.8092C94.9759 1.24824 95.0193 0.496251 95.2799 0.554136ZM117.176 33.2476C115.959 33.7101 114.677 34.5196 113.331 35.6758C111.984 36.8319 110.724 38.234 109.551 39.8817C108.378 41.5294 107.379 43.336 106.553 45.3017C105.728 47.2674 105.228 49.2332 105.055 51.1987C106.792 51.4877 108.574 51.3287 110.398 50.7217C112.223 50.1147 113.917 49.2619 115.481 48.1635C117.045 47.065 118.457 45.793 119.717 44.3478C120.977 42.9026 121.976 41.4715 122.715 40.0551C123.453 38.6388 123.866 37.3091 123.953 36.066C124.04 34.8229 123.692 33.8258 122.91 33.0742C122.302 32.3226 121.39 32.0479 120.173 32.2502C118.957 32.4526 117.958 32.7851 117.176 33.2476ZM143.112 31.6866C143.372 31.6288 144.111 31.4695 145.327 31.2093C146.544 30.9492 147.543 30.9058 148.325 31.0793C150.845 31.0214 152.778 31.455 154.125 32.3801C155.472 33.3051 155.58 35.0974 154.45 37.7567C152.799 40.7052 150.606 43.1622 147.869 45.1279C145.132 47.0936 141.895 48.9726 138.159 50.7647C139.028 52.2678 140.331 53.1062 142.069 53.2796C143.807 53.453 145.631 53.2651 147.543 52.7159C149.454 52.1667 151.322 51.4296 153.147 50.5046C154.972 49.5795 156.449 48.7702 157.578 48.0764C159.403 47.0358 160.858 46.1541 161.944 45.4314C163.03 44.7088 164.182 43.8271 165.398 42.7865C165.659 42.6709 165.811 42.6853 165.854 42.8299C165.898 42.9745 165.876 43.1913 165.789 43.4803C165.702 43.7694 165.572 44.1741 165.398 44.6944C165.137 45.0991 164.877 45.4605 164.616 45.7785C164.355 46.0965 163.986 46.4434 163.508 46.8191C163.03 47.1949 162.4 47.643 161.618 48.1633C160.836 48.6836 159.881 49.3774 158.751 50.2446C157.448 51.0539 156.188 51.8489 154.971 52.6294C153.755 53.4099 152.474 54.0891 151.127 54.6673C149.78 55.2455 148.303 55.6502 146.695 55.8815C145.088 56.1127 143.242 56.1127 141.156 55.8815C139.419 55.4767 138.028 55.0431 136.986 54.5807C135.943 54.1182 135.139 53.6412 134.575 53.1498C134.01 52.6583 133.597 52.2102 133.336 51.8055C133.076 51.4008 132.902 51.0539 132.815 50.7649C132.381 49.6086 132.207 48.0477 132.294 46.082C132.381 44.1163 133.25 41.5726 134.901 38.4506C136.03 36.8318 137.247 35.4588 138.55 34.3314C139.853 33.2041 141.374 32.3226 143.112 31.6866ZM137.377 47.0361C138.507 46.6314 139.831 46.0676 141.351 45.345C142.872 44.6223 144.306 43.784 145.652 42.8301C146.999 41.8762 148.172 40.821 149.171 39.6648C150.171 38.5086 150.714 37.2945 150.801 36.0226C151.061 35.1554 151.018 34.5483 150.67 34.2014C150.497 34.028 150.323 33.9413 150.149 33.9413C148.672 33.4788 147.195 33.6234 145.718 34.375C144.241 35.1266 142.894 36.1961 141.678 37.5836C140.461 38.9711 139.44 40.5176 138.615 42.2231C137.789 43.9287 137.377 45.533 137.377 47.0361ZM171.263 18.0716C172.132 17.956 172.653 18.303 172.827 19.1123C173.001 19.9217 172.827 20.5287 172.306 20.9334C171.35 21.4538 170.742 21.9018 170.481 22.2776C170.22 22.6534 169.612 22.899 168.656 23.0146C168.135 22.9568 167.679 22.9423 167.288 22.9712C166.897 23.0001 166.571 22.5231 166.31 21.5403C166.658 20.9044 167.201 20.2685 167.94 19.6326C168.678 18.9966 169.786 18.4763 171.263 18.0716ZM171.654 29.3452C172.089 32.1202 172.393 35.17 172.567 38.4942C172.74 41.8184 173.045 45.3017 173.479 48.9439C173.827 50.7939 174.174 52.2393 174.522 53.2799C174.869 54.3206 175.13 55.3034 175.304 56.2284C173.913 56.4019 172.827 56.3874 172.045 56.1851C171.263 55.9827 170.525 55.7371 169.83 55.448C169.656 54.523 169.461 52.9908 169.243 50.8519C169.026 48.7129 168.809 46.3858 168.592 43.8709C168.374 41.356 168.157 38.9133 167.94 36.5431C167.722 34.1728 167.527 32.2938 167.353 30.9063C167.701 30.7907 167.983 30.6172 168.201 30.3859C168.418 30.1546 168.657 29.9523 168.917 29.7789C169.178 29.6054 169.526 29.4609 169.96 29.3453C170.394 29.2297 170.959 29.2296 171.654 29.3452ZM229 10.6137C228.739 11.6543 228.435 12.753 228.088 13.9092C227.74 15.0655 227.371 16.164 226.98 17.2046C226.589 18.2452 226.263 19.1413 226.003 19.8929C225.742 20.6445 225.568 21.107 225.481 21.2805C224.96 22.2633 224.265 23.5352 223.396 25.0961C222.527 26.6571 221.506 28.2903 220.333 29.9958C219.16 31.7014 217.835 33.407 216.358 35.1123C214.881 36.8177 213.36 38.2776 211.796 39.4917C211.796 40.3589 211.948 41.8186 212.253 43.871C212.557 45.9235 212.926 48.1348 213.36 50.5051C213.795 52.8754 214.207 55.2023 214.598 57.4861C214.989 59.7699 215.228 61.5474 215.315 62.8194C214.881 63.1084 214.49 63.0506 214.142 62.6458C213.795 62.2411 213.273 61.5474 212.578 60.5646C212.057 59.0614 211.644 57.674 211.34 56.402C211.036 55.13 210.754 53.8438 210.493 52.543C210.232 51.2422 209.95 49.8692 209.646 48.4237C209.342 46.9783 208.886 45.3307 208.277 43.4807C206.626 44.8682 204.65 46.4437 202.347 48.2069C200.045 49.9702 197.655 51.5311 195.179 52.8898C192.703 54.2485 190.27 55.2024 187.88 55.7516C185.491 56.3008 183.428 56.0551 181.69 55.0145C180.647 54.0894 180.191 53.0054 180.321 51.7625C180.452 50.5195 180.973 49.2476 181.885 47.9468C182.798 46.646 183.97 45.3597 185.404 44.0877C186.838 42.8158 188.293 41.6305 189.77 40.5322C191.247 39.4339 192.638 38.4798 193.941 37.6705C195.244 36.8611 196.2 36.2829 196.808 35.9361C198.025 35.4157 199.045 34.9966 199.871 34.6786C200.696 34.3606 201.435 34.1005 202.086 33.8981C202.738 33.6958 203.412 33.5513 204.107 33.4645C204.802 33.3778 205.671 33.3633 206.713 33.4212C206.539 32.0915 206.431 30.5017 206.387 28.6516C206.344 26.8014 206.344 24.9371 206.387 23.0581C206.431 21.1791 206.518 19.4302 206.648 17.8116C206.778 16.1929 206.974 14.9498 207.235 14.0826C207.408 12.8107 207.821 11.481 208.473 10.0935C209.124 8.70595 209.95 7.36179 210.949 6.06099C211.948 4.76019 213.056 3.604 214.273 2.59219C215.489 1.58038 216.814 0.857788 218.248 0.424188C219.681 -0.00941273 221.158 -0.110616 222.679 0.120667C224.199 0.351949 225.698 1.07459 227.175 2.28867C228.392 3.27147 229 4.50003 229 5.97427V10.6137ZM211.796 33.7679C213.36 32.6117 214.664 31.3831 215.707 30.0823C216.749 28.7815 217.922 27.2351 219.225 25.4428C220.355 23.8818 221.376 21.8873 222.288 19.4591C223.201 17.031 223.83 14.6461 224.178 12.3047C224.526 9.96326 224.526 7.92534 224.178 6.19094C223.83 4.45654 222.962 3.53145 221.571 3.4159C220.355 3.3003 219.225 3.60382 218.183 4.32646C217.14 5.0491 216.184 5.94518 215.315 7.01478C214.446 8.08439 213.708 9.22614 213.1 10.4402C212.491 11.6543 212.057 12.7238 211.796 13.6489C211.449 14.8051 211.21 15.8457 211.079 16.7708C210.949 17.6959 210.862 18.6642 210.819 19.6759C210.775 20.6876 210.71 21.7862 210.623 22.9713C210.536 24.1564 210.363 25.6162 210.102 27.3506C210.102 28.2178 210.167 29.085 210.297 29.9522C210.428 30.8194 210.602 31.5566 210.819 32.1636C211.036 32.7706 211.232 33.2331 211.405 33.5511C211.579 33.8691 211.709 33.9414 211.796 33.7679ZM192.899 41.8329C190.553 43.4517 188.836 44.9403 187.75 46.299C186.664 47.6577 185.774 48.9151 185.079 50.0713V50.8951L185.274 51.9791L186.056 52.8897L187.946 53.1065C188.815 52.8752 189.532 52.6439 190.097 52.4127C190.661 52.1814 191.183 51.9357 191.66 51.6755C192.138 51.4154 192.66 51.1407 193.224 50.8517C193.789 50.5627 194.506 50.1869 195.375 49.7244C196.591 48.8572 198.09 47.8744 199.871 46.7759C201.653 45.6775 203.217 44.5212 204.563 43.3071C205.91 42.0931 206.801 40.8501 207.235 39.5782C207.669 38.3062 207.105 37.0633 205.541 35.8492C204.932 35.8492 204.303 35.9071 203.651 36.0226C202.999 36.1382 202.195 36.4129 201.24 36.8465C200.284 37.2801 199.133 37.8871 197.786 38.6676C196.439 39.4481 194.81 40.5032 192.899 41.8329Z"/>
</mask>
<path d="M70.3866 52.4127C70.9949 52.7018 71.994 52.2102 73.3843 50.9382C74.7745 49.6663 76.1212 48.0331 77.4245 46.0386C78.7278 44.044 79.8139 41.9194 80.6828 39.6646C81.5517 37.4099 81.8124 35.4442 81.4648 33.7677C81.4648 33.4208 81.6821 33.204 82.1165 33.1173C82.5509 33.0305 83.0504 32.9872 83.6151 32.9872C84.1799 32.9872 84.7446 33.0161 85.3093 33.0739C85.874 33.1317 86.2868 33.1896 86.5475 33.2474C86.3737 34.5194 86.1348 36.1237 85.8308 38.0604C85.5267 39.9971 85.3312 41.9194 85.2443 43.8273C85.1574 45.7351 85.2659 47.4695 85.57 49.0305C85.874 50.5914 86.5909 51.6033 87.7205 52.0657C88.6762 52.4704 89.784 52.4415 91.0439 51.9791C92.3038 51.5166 93.5202 50.9384 94.6932 50.2447C95.8662 49.5509 96.9306 48.9294 97.8863 48.3802C98.842 47.831 99.4503 47.6431 99.7109 47.8165C99.3634 48.7993 98.6248 49.7532 97.4952 50.6783C96.3656 51.6033 95.084 52.3838 93.6504 53.0197C92.2168 53.6556 90.6962 54.1037 89.0888 54.3639C87.4814 54.624 86.026 54.5807 84.7227 54.2338C84.2014 54.1759 83.7886 53.8435 83.4845 53.2365C83.1805 52.6295 82.9198 51.9212 82.7026 51.1118C82.4853 50.3025 82.3116 49.4353 82.1812 48.5103C82.0509 47.5852 81.8988 46.7469 81.7251 45.9954L79.3791 49.1173L76.7725 52.4127L74.2962 55.101L72.3412 56.4018C70.6035 56.8643 69.2568 56.9655 68.3009 56.7053C67.3451 56.4451 66.6936 56.0838 66.346 55.6213C65.8246 55.4479 65.4554 54.8553 65.2381 53.8435C65.0209 52.8318 64.8472 51.5455 64.7168 49.9845C64.5865 48.4235 64.5213 46.6603 64.5213 44.6946V38.6675L64.391 32.5971L64 27.0904C64.6083 27.0904 65.2165 27.1193 65.8248 27.1771C66.3461 27.235 66.8674 27.3072 67.3887 27.3939C67.9101 27.4806 68.3445 27.6686 68.6921 27.9576C69.1265 29.2873 69.1916 31.6287 68.8876 34.9819C68.5835 38.3352 68.3446 42.3822 68.1709 47.1227C68.1709 47.2962 68.1926 47.6286 68.236 48.12C68.2794 48.6115 68.3664 49.1463 68.4967 49.7244C68.627 50.3026 68.8443 50.8518 69.1484 51.3721C69.4524 51.8924 69.8653 52.2393 70.3866 52.4127ZM95.2799 0.554136C95.5406 0.554136 95.8666 0.482237 96.2576 0.337674C96.6485 0.193112 97.0613 0.149753 97.4957 0.207595C97.9301 0.265438 98.3211 0.525597 98.6687 0.988075C99.0163 1.45055 99.2769 2.25991 99.4507 3.41624C99.6244 4.8616 99.7981 6.62488 99.9719 8.70616C100.146 10.7874 100.341 13.0276 100.558 15.427C100.776 17.8263 101.015 20.3267 101.275 22.9283C101.536 25.5299 101.797 28.0593 102.057 30.5163C102.318 32.9733 102.557 35.2568 102.774 37.3671C102.991 39.4775 103.187 41.2839 103.36 42.7872C103.621 42.0934 104.142 41.154 104.924 39.9688C105.706 38.7835 106.684 37.5406 107.857 36.2398C109.03 34.939 110.398 33.6961 111.962 32.5108C113.526 31.3256 115.221 30.4151 117.045 29.7791C118.522 29.3744 119.782 29.1576 120.825 29.1287C121.868 29.0999 122.758 29.2011 123.497 29.4323C124.235 29.6636 124.844 29.9527 125.321 30.2995C125.799 30.6464 126.169 30.9644 126.429 31.2535C127.472 32.93 127.841 34.8667 127.537 37.0637C127.233 39.2608 126.408 41.4431 125.061 43.6111C123.714 45.7791 121.868 47.7591 119.522 49.5514C117.176 51.3437 114.439 52.6445 111.311 53.4538C109.573 53.9163 108.313 54.162 107.531 54.1908C106.749 54.2197 105.967 54.2342 105.185 54.2342C105.359 55.1014 105.403 55.6796 105.316 55.9686C105.229 56.2576 105.098 56.4311 104.925 56.4889C104.577 56.7202 104.012 56.8503 103.23 56.8792C102.448 56.908 101.666 56.8647 100.884 56.7491C100.363 52.2396 99.8851 47.875 99.4507 43.6544C99.2769 41.8621 99.0814 40.0121 98.8642 38.1043C98.6469 36.1964 98.4297 34.3465 98.2124 32.5542C97.9951 30.7619 97.7996 29.0709 97.6259 27.4811C97.4522 25.8913 97.3218 24.4892 97.2349 23.2751C97.148 21.0783 96.9525 18.6501 96.6484 15.9907C96.3444 13.3312 96.0619 10.8596 95.8013 8.57608C95.5406 6.29253 95.3233 4.37016 95.1496 2.8092C94.9759 1.24824 95.0193 0.496251 95.2799 0.554136ZM117.176 33.2476C115.959 33.7101 114.677 34.5196 113.331 35.6758C111.984 36.8319 110.724 38.234 109.551 39.8817C108.378 41.5294 107.379 43.336 106.553 45.3017C105.728 47.2674 105.228 49.2332 105.055 51.1987C106.792 51.4877 108.574 51.3287 110.398 50.7217C112.223 50.1147 113.917 49.2619 115.481 48.1635C117.045 47.065 118.457 45.793 119.717 44.3478C120.977 42.9026 121.976 41.4715 122.715 40.0551C123.453 38.6388 123.866 37.3091 123.953 36.066C124.04 34.8229 123.692 33.8258 122.91 33.0742C122.302 32.3226 121.39 32.0479 120.173 32.2502C118.957 32.4526 117.958 32.7851 117.176 33.2476ZM143.112 31.6866C143.372 31.6288 144.111 31.4695 145.327 31.2093C146.544 30.9492 147.543 30.9058 148.325 31.0793C150.845 31.0214 152.778 31.455 154.125 32.3801C155.472 33.3051 155.58 35.0974 154.45 37.7567C152.799 40.7052 150.606 43.1622 147.869 45.1279C145.132 47.0936 141.895 48.9726 138.159 50.7647C139.028 52.2678 140.331 53.1062 142.069 53.2796C143.807 53.453 145.631 53.2651 147.543 52.7159C149.454 52.1667 151.322 51.4296 153.147 50.5046C154.972 49.5795 156.449 48.7702 157.578 48.0764C159.403 47.0358 160.858 46.1541 161.944 45.4314C163.03 44.7088 164.182 43.8271 165.398 42.7865C165.659 42.6709 165.811 42.6853 165.854 42.8299C165.898 42.9745 165.876 43.1913 165.789 43.4803C165.702 43.7694 165.572 44.1741 165.398 44.6944C165.137 45.0991 164.877 45.4605 164.616 45.7785C164.355 46.0965 163.986 46.4434 163.508 46.8191C163.03 47.1949 162.4 47.643 161.618 48.1633C160.836 48.6836 159.881 49.3774 158.751 50.2446C157.448 51.0539 156.188 51.8489 154.971 52.6294C153.755 53.4099 152.474 54.0891 151.127 54.6673C149.78 55.2455 148.303 55.6502 146.695 55.8815C145.088 56.1127 143.242 56.1127 141.156 55.8815C139.419 55.4767 138.028 55.0431 136.986 54.5807C135.943 54.1182 135.139 53.6412 134.575 53.1498C134.01 52.6583 133.597 52.2102 133.336 51.8055C133.076 51.4008 132.902 51.0539 132.815 50.7649C132.381 49.6086 132.207 48.0477 132.294 46.082C132.381 44.1163 133.25 41.5726 134.901 38.4506C136.03 36.8318 137.247 35.4588 138.55 34.3314C139.853 33.2041 141.374 32.3226 143.112 31.6866ZM137.377 47.0361C138.507 46.6314 139.831 46.0676 141.351 45.345C142.872 44.6223 144.306 43.784 145.652 42.8301C146.999 41.8762 148.172 40.821 149.171 39.6648C150.171 38.5086 150.714 37.2945 150.801 36.0226C151.061 35.1554 151.018 34.5483 150.67 34.2014C150.497 34.028 150.323 33.9413 150.149 33.9413C148.672 33.4788 147.195 33.6234 145.718 34.375C144.241 35.1266 142.894 36.1961 141.678 37.5836C140.461 38.9711 139.44 40.5176 138.615 42.2231C137.789 43.9287 137.377 45.533 137.377 47.0361ZM171.263 18.0716C172.132 17.956 172.653 18.303 172.827 19.1123C173.001 19.9217 172.827 20.5287 172.306 20.9334C171.35 21.4538 170.742 21.9018 170.481 22.2776C170.22 22.6534 169.612 22.899 168.656 23.0146C168.135 22.9568 167.679 22.9423 167.288 22.9712C166.897 23.0001 166.571 22.5231 166.31 21.5403C166.658 20.9044 167.201 20.2685 167.94 19.6326C168.678 18.9966 169.786 18.4763 171.263 18.0716ZM171.654 29.3452C172.089 32.1202 172.393 35.17 172.567 38.4942C172.74 41.8184 173.045 45.3017 173.479 48.9439C173.827 50.7939 174.174 52.2393 174.522 53.2799C174.869 54.3206 175.13 55.3034 175.304 56.2284C173.913 56.4019 172.827 56.3874 172.045 56.1851C171.263 55.9827 170.525 55.7371 169.83 55.448C169.656 54.523 169.461 52.9908 169.243 50.8519C169.026 48.7129 168.809 46.3858 168.592 43.8709C168.374 41.356 168.157 38.9133 167.94 36.5431C167.722 34.1728 167.527 32.2938 167.353 30.9063C167.701 30.7907 167.983 30.6172 168.201 30.3859C168.418 30.1546 168.657 29.9523 168.917 29.7789C169.178 29.6054 169.526 29.4609 169.96 29.3453C170.394 29.2297 170.959 29.2296 171.654 29.3452ZM229 10.6137C228.739 11.6543 228.435 12.753 228.088 13.9092C227.74 15.0655 227.371 16.164 226.98 17.2046C226.589 18.2452 226.263 19.1413 226.003 19.8929C225.742 20.6445 225.568 21.107 225.481 21.2805C224.96 22.2633 224.265 23.5352 223.396 25.0961C222.527 26.6571 221.506 28.2903 220.333 29.9958C219.16 31.7014 217.835 33.407 216.358 35.1123C214.881 36.8177 213.36 38.2776 211.796 39.4917C211.796 40.3589 211.948 41.8186 212.253 43.871C212.557 45.9235 212.926 48.1348 213.36 50.5051C213.795 52.8754 214.207 55.2023 214.598 57.4861C214.989 59.7699 215.228 61.5474 215.315 62.8194C214.881 63.1084 214.49 63.0506 214.142 62.6458C213.795 62.2411 213.273 61.5474 212.578 60.5646C212.057 59.0614 211.644 57.674 211.34 56.402C211.036 55.13 210.754 53.8438 210.493 52.543C210.232 51.2422 209.95 49.8692 209.646 48.4237C209.342 46.9783 208.886 45.3307 208.277 43.4807C206.626 44.8682 204.65 46.4437 202.347 48.2069C200.045 49.9702 197.655 51.5311 195.179 52.8898C192.703 54.2485 190.27 55.2024 187.88 55.7516C185.491 56.3008 183.428 56.0551 181.69 55.0145C180.647 54.0894 180.191 53.0054 180.321 51.7625C180.452 50.5195 180.973 49.2476 181.885 47.9468C182.798 46.646 183.97 45.3597 185.404 44.0877C186.838 42.8158 188.293 41.6305 189.77 40.5322C191.247 39.4339 192.638 38.4798 193.941 37.6705C195.244 36.8611 196.2 36.2829 196.808 35.9361C198.025 35.4157 199.045 34.9966 199.871 34.6786C200.696 34.3606 201.435 34.1005 202.086 33.8981C202.738 33.6958 203.412 33.5513 204.107 33.4645C204.802 33.3778 205.671 33.3633 206.713 33.4212C206.539 32.0915 206.431 30.5017 206.387 28.6516C206.344 26.8014 206.344 24.9371 206.387 23.0581C206.431 21.1791 206.518 19.4302 206.648 17.8116C206.778 16.1929 206.974 14.9498 207.235 14.0826C207.408 12.8107 207.821 11.481 208.473 10.0935C209.124 8.70595 209.95 7.36179 210.949 6.06099C211.948 4.76019 213.056 3.604 214.273 2.59219C215.489 1.58038 216.814 0.857788 218.248 0.424188C219.681 -0.00941273 221.158 -0.110616 222.679 0.120667C224.199 0.351949 225.698 1.07459 227.175 2.28867C228.392 3.27147 229 4.50003 229 5.97427V10.6137ZM211.796 33.7679C213.36 32.6117 214.664 31.3831 215.707 30.0823C216.749 28.7815 217.922 27.2351 219.225 25.4428C220.355 23.8818 221.376 21.8873 222.288 19.4591C223.201 17.031 223.83 14.6461 224.178 12.3047C224.526 9.96326 224.526 7.92534 224.178 6.19094C223.83 4.45654 222.962 3.53145 221.571 3.4159C220.355 3.3003 219.225 3.60382 218.183 4.32646C217.14 5.0491 216.184 5.94518 215.315 7.01478C214.446 8.08439 213.708 9.22614 213.1 10.4402C212.491 11.6543 212.057 12.7238 211.796 13.6489C211.449 14.8051 211.21 15.8457 211.079 16.7708C210.949 17.6959 210.862 18.6642 210.819 19.6759C210.775 20.6876 210.71 21.7862 210.623 22.9713C210.536 24.1564 210.363 25.6162 210.102 27.3506C210.102 28.2178 210.167 29.085 210.297 29.9522C210.428 30.8194 210.602 31.5566 210.819 32.1636C211.036 32.7706 211.232 33.2331 211.405 33.5511C211.579 33.8691 211.709 33.9414 211.796 33.7679ZM192.899 41.8329C190.553 43.4517 188.836 44.9403 187.75 46.299C186.664 47.6577 185.774 48.9151 185.079 50.0713V50.8951L185.274 51.9791L186.056 52.8897L187.946 53.1065C188.815 52.8752 189.532 52.6439 190.097 52.4127C190.661 52.1814 191.183 51.9357 191.66 51.6755C192.138 51.4154 192.66 51.1407 193.224 50.8517C193.789 50.5627 194.506 50.1869 195.375 49.7244C196.591 48.8572 198.09 47.8744 199.871 46.7759C201.653 45.6775 203.217 44.5212 204.563 43.3071C205.91 42.0931 206.801 40.8501 207.235 39.5782C207.669 38.3062 207.105 37.0633 205.541 35.8492C204.932 35.8492 204.303 35.9071 203.651 36.0226C202.999 36.1382 202.195 36.4129 201.24 36.8465C200.284 37.2801 199.133 37.8871 197.786 38.6676C196.439 39.4481 194.81 40.5032 192.899 41.8329Z" fill="white" stroke="white" stroke-width="2" mask="url(#path-4-inside-1_0_1)"/>
</g>
<defs>
<filter id="filter0_d_0_1" x="21" y="0" width="25.9531" height="27.9572" filterUnits="userSpaceOnUse" color-interpolation-filters="sRGB">
<feFlood flood-opacity="0" result="BackgroundImageFix"/>
<feColorMatrix in="SourceAlpha" type="matrix" values="0 0 0 0 0 0 0 0 0 0 0 0 0 0 0 0 0 0 127 0" result="hardAlpha"/>
<feOffset dy="4"/>
<feGaussianBlur stdDeviation="2"/>
<feComposite in2="hardAlpha" operator="out"/>
<feColorMatrix type="matrix" values="0 0 0 0 0 0 0 0 0 0 0 0 0 0 0 0 0 0 0.25 0"/>
<feBlend mode="normal" in2="BackgroundImageFix" result="effect1_dropShadow_0_1"/>
<feBlend mode="normal" in="SourceGraphic" in2="effect1_dropShadow_0_1" result="shape"/>
</filter>
<filter id="filter1_d_0_1" x="0" y="52" width="68.204" height="29.9698" filterUnits="userSpaceOnUse" color-interpolation-filters="sRGB">
<feFlood flood-opacity="0" result="BackgroundImageFix"/>
<feColorMatrix in="SourceAlpha" type="matrix" values="0 0 0 0 0 0 0 0 0 0 0 0 0 0 0 0 0 0 127 0" result="hardAlpha"/>
<feOffset dy="4"/>
<feGaussianBlur stdDeviation="2"/>
<feComposite in2="hardAlpha" operator="out"/>
<feColorMatrix type="matrix" values="0 0 0 0 0 0 0 0 0 0 0 0 0 0 0 0 0 0 0.25 0"/>
<feBlend mode="normal" in2="BackgroundImageFix" result="effect1_dropShadow_0_1"/>
<feBlend mode="normal" in="SourceGraphic" in2="effect1_dropShadow_0_1" result="shape"/>
</filter>
<filter id="filter2_d_0_1" x="10" y="15" width="47.2005" height="40.3782" filterUnits="userSpaceOnUse" color-interpolation-filters="sRGB">
<feFlood flood-opacity="0" result="BackgroundImageFix"/>
<feColorMatrix in="SourceAlpha" type="matrix" values="0 0 0 0 0 0 0 0 0 0 0 0 0 0 0 0 0 0 127 0" result="hardAlpha"/>
<feOffset dy="4"/>
<feGaussianBlur stdDeviation="2"/>
<feComposite in2="hardAlpha" operator="out"/>
<feColorMatrix type="matrix" values="0 0 0 0 0 0 0 0 0 0 0 0 0 0 0 0 0 0 0.25 0"/>
<feBlend mode="normal" in2="BackgroundImageFix" result="effect1_dropShadow_0_1"/>
<feBlend mode="normal" in="SourceGraphic" in2="effect1_dropShadow_0_1" result="shape"/>
</filter>
<filter id="filter3_d_0_1" x="60" y="0" width="173" height="71" filterUnits="userSpaceOnUse" color-interpolation-filters="sRGB">
<feFlood flood-opacity="0" result="BackgroundImageFix"/>
<feColorMatrix in="SourceAlpha" type="matrix" values="0 0 0 0 0 0 0 0 0 0 0 0 0 0 0 0 0 0 127 0" result="hardAlpha"/>
<feOffset dy="4"/>
<feGaussianBlur stdDeviation="2"/>
<feComposite in2="hardAlpha" operator="out"/>
<feColorMatrix type="matrix" values="0 0 0 0 0 0 0 0 0 0 0 0 0 0 0 0 0 0 0.25 0"/>
<feBlend mode="normal" in2="BackgroundImageFix" result="effect1_dropShadow_0_1"/>
<feBlend mode="normal" in="SourceGraphic" in2="effect1_dropShadow_0_1" result="shape"/>
</filter>
</defs>
</svg>
